<svg aria-roledescription="pie" role="graphics-document document" style="max-width: 784px; background-color: white;" viewBox="0 0 784 450" xmlns:xlink="http://www.w3.org/1999/xlink" xmlns="http://www.w3.org/2000/svg" width="100%" id="my-svg"><style>#my-svg{font-family:"trebuchet ms",verdana,arial,sans-serif;font-size:16px;fill:#333;}#my-svg .error-icon{fill:#552222;}#my-svg .error-text{fill:#552222;stroke:#552222;}#my-svg .edge-thickness-normal{stroke-width:2px;}#my-svg .edge-thickness-thick{stroke-width:3.5px;}#my-svg .edge-pattern-solid{stroke-dasharray:0;}#my-svg .edge-pattern-dashed{stroke-dasharray:3;}#my-svg .edge-pattern-dotted{stroke-dasharray:2;}#my-svg .marker{fill:#333333;stroke:#333333;}#my-svg .marker.cross{stroke:#333333;}#my-svg svg{font-family:"trebuchet ms",verdana,arial,sans-serif;font-size:16px;}#my-svg .pieCircle{stroke:black;stroke-width:2px;opacity:0.7;}#my-svg .pieOuterCircle{stroke:black;stroke-width:2px;fill:none;}#my-svg .pieTitleText{text-anchor:middle;font-size:25px;fill:black;font-family:"trebuchet ms",verdana,arial,sans-serif;}#my-svg .slice{font-family:"trebuchet ms",verdana,arial,sans-serif;fill:#333;font-size:17px;}#my-svg .legend text{fill:black;font-family:"trebuchet ms",verdana,arial,sans-serif;font-size:17px;}#my-svg :root{--mermaid-font-family:"trebuchet ms",verdana,arial,sans-serif;}</style><g/><g transform="translate(392,225)"><circle class="pieOuterCircle" r="186" cy="0" cx="0"/><path class="pieCircle" fill="#ECECFF" d="M1.1327982892113017e-14,-185A185,185,0,0,1,20.217097192961457,183.8920035811518L0,0Z"/><path class="pieCircle" fill="#ffffde" d="M20.217097192961457,183.8920035811518A185,185,0,0,1,-150.54830490881199,-107.51840721050223L0,0Z"/><path class="pieCircle" fill="hsl(80, 100%, 56.2745098039%)" d="M-150.54830490881199,-107.51840721050223A185,185,0,0,1,-22.354042799270704,-183.64448472668155L0,0Z"/><path class="pieCircle" fill="hsl(240, 100%, 86.2745098039%)" d="M-22.354042799270704,-183.64448472668155A185,185,0,0,1,-3.398394867633905e-14,-185L0,0Z"/><text style="text-anchor: middle;" class="slice" transform="translate(138.5420949074028,-7.5927885963060255)">48%</text><text style="text-anchor: middle;" class="slice" transform="translate(-119.71034449100293,70.14981056172144)">37%</text><text style="text-anchor: middle;" class="slice" transform="translate(-70.84463786262064,-119.30046012532449)">13%</text><text style="text-anchor: middle;" class="slice" transform="translate(-8.398163731724317,-138.4956076774103)">2%</text><text class="pieTitleText" y="-200" x="0">Formal languages used in GiellaLT</text><g transform="translate(216,-44)" class="legend"><rect style="fill: rgb(236, 236, 255); stroke: rgb(236, 236, 255);" height="18" width="18"/><text y="14" x="22">LexC</text></g><g transform="translate(216,-22)" class="legend"><rect style="fill: rgb(255, 255, 222); stroke: rgb(255, 255, 222);" height="18" width="18"/><text y="14" x="22">Xfst regex</text></g><g transform="translate(216,0)" class="legend"><rect style="fill: rgb(181, 255, 32); stroke: rgb(181, 255, 32);" height="18" width="18"/><text y="14" x="22">Xfst script</text></g><g transform="translate(216,22)" class="legend"><rect style="fill: rgb(185, 185, 255); stroke: rgb(185, 185, 255);" height="18" width="18"/><text y="14" x="22">TwolC</text></g></g></svg>