<?xml version="1.0" encoding="UTF-8" standalone="no"?>
<!DOCTYPE svg PUBLIC "-//W3C//DTD SVG 1.1//EN" "http://www.w3.org/Graphics/SVG/1.1/DTD/svg11.dtd">
<svg xmlns:xl="http://www.w3.org/1999/xlink" xmlns:dc="http://purl.org/dc/elements/1.1/" xmlns="http://www.w3.org/2000/svg" version="1.1" viewBox="87 113 841 596" width="841" height="596">
  <defs>
    <marker orient="auto" overflow="visible" markerUnits="strokeWidth" id="FilledArrow_Marker" stroke-linejoin="miter" stroke-miterlimit="10" viewBox="-1 -3 7 6" markerWidth="7" markerHeight="6" color="black">
      <g>
        <path d="M 4.8 0 L 0 -1.8 L 0 1.8 Z" fill="currentColor" stroke="currentColor" stroke-width="1"/>
      </g>
    </marker>
  </defs>
  <g id="Canvas_1" fill-opacity="1" stroke-opacity="1" fill="none" stroke="none" stroke-dasharray="none">
    <title>Canvas 1</title>
    <g id="Canvas_1_Layer_1">
      <title>Layer 1</title>
      <g id="Line_43">
        <path d="M 832 308.1275 L 832 322.66667 L 183 322.66667 L 183 326.4824" marker-end="url(#FilledArrow_Marker)" stroke="black" stroke-linecap="round" stroke-linejoin="round" stroke-width="2"/>
      </g>
      <g id="Group_108">
        <g id="Graphic_73">
          <rect x="88" y="168.6275" width="190" height="139.5" fill="#f2f0f3"/>
          <path d="M 88 168.6275 L 278 168.6275 L 278 308.1275 L 88 308.1275 Z" stroke="black" stroke-linecap="round" stroke-linejoin="round" stroke-dasharray="4.0,4.0" stroke-width="1"/>
          <text transform="translate(93 173.6275)" fill="black">
            <tspan font-family="Menlo" font-size="11" fill="black" x="27.681152" y="10">tokeniser-gramcheck-gt-</tspan>
            <tspan font-family="Menlo" font-size="11" fill="black" x="107.15186" y="23">desc.pmhfst</tspan>
            <tspan font-family="Menlo" font-size="11" fill="black" x="93.90674" y="127">hfst-tokenise</tspan>
          </text>
        </g>
        <g id="Graphic_72">
          <path d="M 107.68273 201 L 258.31727 201 C 263.28783 201 267.31727 205.02944 267.31727 210 L 267.31727 277 C 267.31727 281.97056 263.28783 286 258.31727 286 L 107.68273 286 C 102.71217 286 98.68273 281.97056 98.68273 277 L 98.68273 210 C 98.68273 205.02944 102.71217 201 107.68273 201 Z" fill="#dead26"/>
          <path d="M 107.68273 201 L 258.31727 201 C 263.28783 201 267.31727 205.02944 267.31727 210 L 267.31727 277 C 267.31727 281.97056 263.28783 286 258.31727 286 L 107.68273 286 C 102.71217 286 98.68273 281.97056 98.68273 277 L 98.68273 210 C 98.68273 205.02944 102.71217 201 107.68273 201 Z" stroke="black" stroke-linecap="round" stroke-linejoin="round" stroke-width="1"/>
          <text transform="translate(103.68273 204.7002)" fill="black">
            <tspan font-family="Optima" font-size="16" fill="black" x="14.757268" y="15">Tokenisation &amp; de-</tspan>
            <tspan font-family="Optima" font-size="16" fill="black" x="5.7572684" y="34.399902">scriptive morphologi-</tspan>
            <tspan font-family="Optima" font-size="16" fill="black" x="1.5172684" y="53.799805">cal analysis (with error </tspan>
            <tspan font-family="Optima" font-size="16" fill="black" x="22.861268" y="73.19971">&amp; semantic tags)</tspan>
          </text>
        </g>
      </g>
      <g id="Graphic_39">
        <rect x="458.41667" y="114.16667" width="96" height="30" stroke="black" stroke-linecap="round" stroke-linejoin="round" stroke-width="1"/>
        <text transform="translate(463.43267 119.16667)" fill="black">
          <tspan font-family="Optima" font-size="16" fill="black" x="37658765e-20" y="15">INPUT TEXT</tspan>
        </text>
      </g>
      <g id="Line_38">
        <path d="M 506.392 144.16667 L 506.37695 153.3418 L 182.75 152 L 182.76079 155.72755" marker-end="url(#FilledArrow_Marker)" stroke="black" stroke-linecap="round" stroke-linejoin="round" stroke-width="2"/>
      </g>
      <g id="Group_106">
        <g id="Graphic_70">
          <rect x="520.66667" y="168.6275" width="190" height="139.5" fill="#e6e6e6"/>
          <path d="M 520.66667 168.6275 L 710.6667 168.6275 L 710.6667 308.1275 L 520.66667 308.1275 Z" stroke="black" stroke-linecap="round" stroke-linejoin="round" stroke-dasharray="4.0,4.0" stroke-width="1"/>
          <text transform="translate(525.66667 173.6275)" fill="black">
            <tspan font-family="Menlo" font-size="11" fill="black" x="107.15186" y="10">valency.cg3</tspan>
            <tspan font-family="Menlo" font-size="11" fill="black" x="133.64209" y="127">vislcg3</tspan>
          </text>
        </g>
        <g id="Graphic_69">
          <path d="M 540.3494 201 L 690.9839 201 C 695.9545 201 699.9839 205.02944 699.9839 210 L 699.9839 277 C 699.9839 281.97056 695.9545 286 690.9839 286 L 540.3494 286 C 535.37883 286 531.3494 281.97056 531.3494 277 L 531.3494 210 C 531.3494 205.02944 535.37883 201 540.3494 201 Z" fill="#dead26"/>
          <path d="M 540.3494 201 L 690.9839 201 C 695.9545 201 699.9839 205.02944 699.9839 210 L 699.9839 277 C 699.9839 281.97056 695.9545 286 690.9839 286 L 540.3494 286 C 535.37883 286 531.3494 281.97056 531.3494 277 L 531.3494 210 C 531.3494 205.02944 535.37883 201 540.3494 201 Z" stroke="black" stroke-linecap="round" stroke-linejoin="round" stroke-width="1"/>
          <text transform="translate(536.3494 233.80005)" fill="black">
            <tspan font-family="Optima" font-size="16" fill="black" x="12.805268" y="15">Valency annotation</tspan>
          </text>
        </g>
      </g>
      <g id="Line_34">
        <line x1="278" y1="238.3775" x2="291.43333" y2="238.3775" marker-end="url(#FilledArrow_Marker)" stroke="black" stroke-linecap="round" stroke-linejoin="round" stroke-width="2"/>
      </g>
      <g id="Group_105">
        <g id="Graphic_67">
          <rect x="737" y="168.6275" width="190" height="139.5" fill="#e1e1e1"/>
          <path d="M 737 168.6275 L 927 168.6275 L 927 308.1275 L 737 308.1275 Z" stroke="black" stroke-linecap="round" stroke-linejoin="round" stroke-dasharray="4.0,4.0" stroke-width="1"/>
          <text transform="translate(742 173.6275)" fill="black">
            <tspan font-family="Menlo" font-size="11" fill="black" x="107.15186" y="10">mwe-dis.cg3</tspan>
            <tspan font-family="Menlo" font-size="11" fill="black" x="133.64209" y="127">vislcg3</tspan>
          </text>
        </g>
        <g id="Graphic_66">
          <path d="M 756.6827 201 L 907.3173 201 C 912.2878 201 916.3173 205.02944 916.3173 210 L 916.3173 277 C 916.3173 281.97056 912.2878 286 907.3173 286 L 756.6827 286 C 751.7122 286 747.6827 281.97056 747.6827 277 L 747.6827 210 C 747.6827 205.02944 751.7122 201 756.6827 201 Z" fill="#dead26"/>
          <path d="M 756.6827 201 L 907.3173 201 C 912.2878 201 916.3173 205.02944 916.3173 210 L 916.3173 277 C 916.3173 281.97056 912.2878 286 907.3173 286 L 756.6827 286 C 751.7122 286 747.6827 281.97056 747.6827 277 L 747.6827 210 C 747.6827 205.02944 751.7122 201 756.6827 201 Z" stroke="black" stroke-linecap="round" stroke-linejoin="round" stroke-width="1"/>
          <text transform="translate(752.6827 204.7002)" fill="black">
            <tspan font-family="Optima" font-size="16" fill="black" x="15.733268" y="15">Disambiguation of </tspan>
            <tspan font-family="Optima" font-size="16" fill="black" x="17.965268" y="34.399902">compound errors, </tspan>
            <tspan font-family="Optima" font-size="16" fill="black" x="21.517268" y="53.799805">other ambiguous </tspan>
            <tspan font-family="Optima" font-size="16" fill="black" x="34.40527" y="73.19971">tokenisations</tspan>
          </text>
        </g>
      </g>
      <g id="Line_30">
        <line x1="710.6667" y1="238.3775" x2="724.1" y2="238.3775" marker-end="url(#FilledArrow_Marker)" stroke="black" stroke-linecap="round" stroke-linejoin="round" stroke-width="2"/>
      </g>
      <g id="Group_113">
        <g id="Graphic_58">
          <rect x="88" y="509.4706" width="190" height="139.5" fill="#c7c7c7"/>
          <path d="M 88 509.4706 L 278 509.4706 L 278 648.9706 L 88 648.9706 Z" stroke="black" stroke-linecap="round" stroke-linejoin="round" stroke-dasharray="4.0,4.0" stroke-width="1"/>
          <text transform="translate(93 514.4706)" fill="black">
            <tspan font-family="Menlo" font-size="11" fill="black" x="40.92627" y="10">grc-disambiguator.cg3</tspan>
            <tspan font-family="Menlo" font-size="11" fill="black" x="133.64209" y="127">vislcg3</tspan>
          </text>
        </g>
        <g id="Graphic_57">
          <path d="M 107.68273 543 L 258.31727 543 C 263.28783 543 267.31727 547.02944 267.31727 552 L 267.31727 619 C 267.31727 623.97056 263.28783 628 258.31727 628 L 107.68273 628 C 102.71217 628 98.68273 623.97056 98.68273 619 L 98.68273 552 C 98.68273 547.02944 102.71217 543 107.68273 543 Z" fill="#dead26"/>
          <path d="M 107.68273 543 L 258.31727 543 C 263.28783 543 267.31727 547.02944 267.31727 552 L 267.31727 619 C 267.31727 623.97056 263.28783 628 258.31727 628 L 107.68273 628 C 102.71217 628 98.68273 623.97056 98.68273 619 L 98.68273 552 C 98.68273 547.02944 102.71217 543 107.68273 543 Z" stroke="black" stroke-linecap="round" stroke-linejoin="round" stroke-width="1"/>
          <text transform="translate(103.68273 556.40015)" fill="black">
            <tspan font-family="Optima" font-size="16" fill="black" x="9.509268" y="15">Disambiguation and </tspan>
            <tspan font-family="Optima" font-size="16" fill="black" x="1.0692684" y="34.399902">syntactic analysis (excl </tspan>
            <tspan font-family="Optima" font-size="16" fill="black" x="13.069268" y="53.799805">speller suggestions)</tspan>
          </text>
        </g>
      </g>
      <g id="Group_107">
        <g id="Graphic_61">
          <rect x="304.33333" y="168.6275" width="190" height="139.5" fill="#ebe9ec"/>
          <path d="M 304.33333 168.6275 L 494.33333 168.6275 L 494.33333 308.1275 L 304.33333 308.1275 Z" stroke="black" stroke-linecap="round" stroke-linejoin="round" stroke-dasharray="4.0,4.0" stroke-width="1"/>
          <text transform="translate(309.33333 173.6275)" fill="black">
            <tspan font-family="Menlo" font-size="11" fill="black" x="1.190918" y="10">analyser-gt-whitespace.hfst</tspan>
            <tspan font-family="Menlo" font-size="11" fill="black" x="80.66162" y="127">divvun-blanktag</tspan>
          </text>
        </g>
        <g id="Graphic_60">
          <path d="M 324.01606 202.15687 L 474.6506 202.15687 C 479.62117 202.15687 483.6506 206.1863 483.6506 211.15687 L 483.6506 278.15687 C 483.6506 283.12744 479.62117 287.15687 474.6506 287.15687 L 324.01606 287.15687 C 319.0455 287.15687 315.01606 283.12744 315.01606 278.15687 L 315.01606 211.15687 C 315.01606 206.1863 319.0455 202.15687 324.01606 202.15687 Z" fill="#dead26"/>
          <path d="M 324.01606 202.15687 L 474.6506 202.15687 C 479.62117 202.15687 483.6506 206.1863 483.6506 211.15687 L 483.6506 278.15687 C 483.6506 283.12744 479.62117 287.15687 474.6506 287.15687 L 324.01606 287.15687 C 319.0455 287.15687 315.01606 283.12744 315.01606 278.15687 L 315.01606 211.15687 C 315.01606 206.1863 319.0455 202.15687 324.01606 202.15687 Z" stroke="black" stroke-linecap="round" stroke-linejoin="round" stroke-width="1"/>
          <text transform="translate(320.01606 234.95692)" fill="black">
            <tspan font-family="Optima" font-size="16" fill="black" x="11.741268" y="15">Whitespace tagging</tspan>
          </text>
        </g>
      </g>
      <g id="Line_20">
        <line x1="494.33333" y1="238.3775" x2="507.76667" y2="238.3775" marker-end="url(#FilledArrow_Marker)" stroke="black" stroke-linecap="round" stroke-linejoin="round" stroke-width="2"/>
      </g>
      <g id="Line_17">
        <line x1="710.6667" y1="579.2206" x2="724.1" y2="579.2206" marker-end="url(#FilledArrow_Marker)" stroke="black" stroke-linecap="round" stroke-linejoin="round" stroke-width="2"/>
      </g>
      <g id="Group_116">
        <g id="Graphic_55">
          <rect x="737" y="509.4706" width="190" height="139.5" fill="#b8b8b8"/>
          <path d="M 737 509.4706 L 927 509.4706 L 927 648.9706 L 737 648.9706 Z" stroke="black" stroke-linecap="round" stroke-linejoin="round" stroke-dasharray="4.0,4.0" stroke-width="1"/>
          <text transform="translate(742 514.4706)" fill="black">
            <tspan font-family="Menlo" font-size="11" fill="black" x="21.058594" y="10">generator-gt-norm.hfstol</tspan>
            <tspan font-family="Menlo" font-size="11" fill="black" x="113.77441" y="23">errors.xml</tspan>
            <tspan font-family="Menlo" font-size="11" fill="black" x="87.28418" y="127">divvun-suggest</tspan>
          </text>
        </g>
        <g id="Graphic_54">
          <path d="M 756.6827 543 L 907.3173 543 C 912.2878 543 916.3173 547.02944 916.3173 552 L 916.3173 619 C 916.3173 623.97056 912.2878 628 907.3173 628 L 756.6827 628 C 751.7122 628 747.6827 623.97056 747.6827 619 L 747.6827 552 C 747.6827 547.02944 751.7122 543 756.6827 543 Z" fill="#dead26"/>
          <path d="M 756.6827 543 L 907.3173 543 C 912.2878 543 916.3173 547.02944 916.3173 552 L 916.3173 619 C 916.3173 623.97056 912.2878 628 907.3173 628 L 756.6827 628 C 751.7122 628 747.6827 623.97056 747.6827 619 L 747.6827 552 C 747.6827 547.02944 751.7122 543 756.6827 543 Z" stroke="black" stroke-linecap="round" stroke-linejoin="round" stroke-width="1"/>
          <text transform="translate(752.6827 566.1001)" fill="black">
            <tspan font-family="Optima" font-size="16" fill="black" x="8.045268" y="15">Word form and error </tspan>
            <tspan font-family="Optima" font-size="16" fill="black" x="11.845268" y="34.399902">message generation</tspan>
          </text>
        </g>
      </g>
      <g id="Graphic_4">
        <rect x="340.66667" y="678.8922" width="331.5" height="29.399902" stroke="black" stroke-linecap="round" stroke-linejoin="round" stroke-width="1"/>
        <text transform="translate(345.66667 683.8922)" fill="black">
          <tspan font-family="Optima" font-size="16" fill="black" x="5.91" y="15">SUGGESTIONS AND FEEDBACK MESSAGES</tspan>
        </text>
      </g>
      <g id="Line_3">
        <path d="M 832 648.9706 L 832 658.25 L 506.33333 659 L 506.3502 665.9922" marker-end="url(#FilledArrow_Marker)" stroke="black" stroke-linecap="round" stroke-linejoin="round" stroke-width="2"/>
      </g>
      <g id="Group_114">
        <g id="Graphic_77">
          <rect x="304.33333" y="509.4706" width="190" height="139.5" fill="#c2c2c2"/>
          <path d="M 304.33333 509.4706 L 494.33333 509.4706 L 494.33333 648.9706 L 304.33333 648.9706 Z" stroke="black" stroke-linecap="round" stroke-linejoin="round" stroke-dasharray="4.0,4.0" stroke-width="1"/>
          <text transform="translate(309.33333 514.4706)" fill="black">
            <tspan font-family="Menlo" font-size="11" fill="black" x="74.03906" y="10">spellchecker.cg3</tspan>
            <tspan font-family="Menlo" font-size="11" fill="black" x="133.64209" y="127">vislcg3</tspan>
          </text>
        </g>
        <g id="Graphic_76">
          <path d="M 324.01606 543 L 474.6506 543 C 479.62117 543 483.6506 547.02944 483.6506 552 L 483.6506 619 C 483.6506 623.97056 479.62117 628 474.6506 628 L 324.01606 628 C 319.0455 628 315.01606 623.97056 315.01606 619 L 315.01606 552 C 315.01606 547.02944 319.0455 543 324.01606 543 Z" fill="#dead26"/>
          <path d="M 324.01606 543 L 474.6506 543 C 479.62117 543 483.6506 547.02944 483.6506 552 L 483.6506 619 C 483.6506 623.97056 479.62117 628 474.6506 628 L 324.01606 628 C 319.0455 628 315.01606 623.97056 315.01606 619 L 315.01606 552 C 315.01606 547.02944 319.0455 543 324.01606 543 Z" stroke="black" stroke-linecap="round" stroke-linejoin="round" stroke-width="1"/>
          <text transform="translate(320.01606 566.1001)" fill="black">
            <tspan font-family="Optima" font-size="16" fill="black" x="7.733268" y="15">CG-based filtering of </tspan>
            <tspan font-family="Optima" font-size="16" fill="black" x="15.293268" y="34.399902">speller suggestions</tspan>
          </text>
        </g>
      </g>
      <g id="Line_78">
        <line x1="278" y1="579.2206" x2="291.43333" y2="579.2206" marker-end="url(#FilledArrow_Marker)" stroke="black" stroke-linecap="round" stroke-linejoin="round" stroke-width="2"/>
      </g>
      <g id="Group_115">
        <g id="Graphic_81">
          <rect x="520.66667" y="509.4706" width="190" height="139.5" fill="#bdbdbd"/>
          <path d="M 520.66667 509.4706 L 710.6667 509.4706 L 710.6667 648.9706 L 520.66667 648.9706 Z" stroke="black" stroke-linecap="round" stroke-linejoin="round" stroke-dasharray="4.0,4.0" stroke-width="1"/>
          <text transform="translate(525.66667 514.4706)" fill="black">
            <tspan font-family="Menlo" font-size="11" fill="black" x="80.66162" y="10">grammarchecker-</tspan>
            <tspan font-family="Menlo" font-size="11" fill="black" x="107.15186" y="23">release.cg3</tspan>
            <tspan font-family="Menlo" font-size="11" fill="black" x="133.64209" y="127">vislcg3</tspan>
          </text>
        </g>
        <g id="Graphic_80">
          <path d="M 540.3494 543 L 690.9839 543 C 695.9545 543 699.9839 547.02944 699.9839 552 L 699.9839 619 C 699.9839 623.97056 695.9545 628 690.9839 628 L 540.3494 628 C 535.37883 628 531.3494 623.97056 531.3494 619 L 531.3494 552 C 531.3494 547.02944 535.37883 543 540.3494 543 Z" fill="#dead26"/>
          <path d="M 540.3494 543 L 690.9839 543 C 695.9545 543 699.9839 547.02944 699.9839 552 L 699.9839 619 C 699.9839 623.97056 695.9545 628 690.9839 628 L 540.3494 628 C 535.37883 628 531.3494 623.97056 531.3494 619 L 531.3494 552 C 531.3494 547.02944 535.37883 543 540.3494 543 Z" stroke="black" stroke-linecap="round" stroke-linejoin="round" stroke-width="1"/>
          <text transform="translate(536.3494 566.1001)" fill="black">
            <tspan font-family="Optima" font-size="16" fill="black" x="1.3172684" y="15">Grammar, punctuation </tspan>
            <tspan font-family="Optima" font-size="16" fill="black" x="7.301268" y="34.399902">and formatting errors</tspan>
          </text>
        </g>
      </g>
      <g id="Line_82">
        <line x1="494.33333" y1="579.2206" x2="507.76667" y2="579.2206" marker-end="url(#FilledArrow_Marker)" stroke="black" stroke-linecap="round" stroke-linejoin="round" stroke-width="2"/>
      </g>
      <g id="Group_109">
        <g id="Graphic_85">
          <rect x="88" y="339.3824" width="190" height="139.5" fill="#dcdcdc"/>
          <path d="M 88 339.3824 L 278 339.3824 L 278 478.8824 L 88 478.8824 Z" stroke="black" stroke-linecap="round" stroke-linejoin="round" stroke-dasharray="4.0,4.0" stroke-width="1"/>
          <text transform="translate(93 344.3824)" fill="black">
            <tspan font-family="Menlo" font-size="11" fill="black" x="107.15186" y="127">cg-mwesplit</tspan>
          </text>
        </g>
        <g id="Graphic_84">
          <path d="M 107.68273 372.91177 L 258.31727 372.91177 C 263.28783 372.91177 267.31727 376.9412 267.31727 381.91177 L 267.31727 448.91177 C 267.31727 453.88233 263.28783 457.91177 258.31727 457.91177 L 107.68273 457.91177 C 102.71217 457.91177 98.68273 453.88233 98.68273 448.91177 L 98.68273 381.91177 C 98.68273 376.9412 102.71217 372.91177 107.68273 372.91177 Z" fill="#dead26"/>
          <path d="M 107.68273 372.91177 L 258.31727 372.91177 C 263.28783 372.91177 267.31727 376.9412 267.31727 381.91177 L 267.31727 448.91177 C 267.31727 453.88233 263.28783 457.91177 258.31727 457.91177 L 107.68273 457.91177 C 102.71217 457.91177 98.68273 453.88233 98.68273 448.91177 L 98.68273 381.91177 C 98.68273 376.9412 102.71217 372.91177 107.68273 372.91177 Z" stroke="black" stroke-linecap="round" stroke-linejoin="round" stroke-width="1"/>
          <text transform="translate(103.68273 396.01187)" fill="black">
            <tspan font-family="Optima" font-size="16" fill="black" x="35.30927" y="15">Reformatting </tspan>
            <tspan font-family="Optima" font-size="16" fill="black" x="4.6212684" y="34.399902">disambiguated tokens</tspan>
          </text>
        </g>
      </g>
      <g id="Line_86">
        <line x1="494.33333" y1="409.1324" x2="507.76667" y2="409.1324" marker-end="url(#FilledArrow_Marker)" stroke="black" stroke-linecap="round" stroke-linejoin="round" stroke-width="2"/>
      </g>
      <g id="Group_110">
        <g id="Graphic_99">
          <rect x="304.33333" y="339.3824" width="190" height="139.5" fill="#d7d7d7"/>
          <path d="M 304.33333 339.3824 L 494.33333 339.3824 L 494.33333 478.8824 L 304.33333 478.8824 Z" stroke="black" stroke-linecap="round" stroke-linejoin="round" stroke-dasharray="4.0,4.0" stroke-width="1"/>
          <text transform="translate(309.33333 344.3824)" fill="black">
            <tspan font-family="Menlo" font-size="11" fill="black" x="100.5293" y="10">analyser-gt-</tspan>
            <tspan font-family="Menlo" font-size="11" fill="black" x="47.54883" y="23">errorwhitespace.hfst</tspan>
            <tspan font-family="Menlo" font-size="11" fill="black" x="80.66162" y="127">divvun-blanktag</tspan>
          </text>
        </g>
        <g id="Graphic_98">
          <path d="M 324.01606 372.91177 L 474.6506 372.91177 C 479.62117 372.91177 483.6506 376.9412 483.6506 381.91177 L 483.6506 448.91177 C 483.6506 453.88233 479.62117 457.91177 474.6506 457.91177 L 324.01606 457.91177 C 319.0455 457.91177 315.01606 453.88233 315.01606 448.91177 L 315.01606 381.91177 C 315.01606 376.9412 319.0455 372.91177 324.01606 372.91177 Z" fill="#dead26"/>
          <path d="M 324.01606 372.91177 L 474.6506 372.91177 C 479.62117 372.91177 483.6506 376.9412 483.6506 381.91177 L 483.6506 448.91177 C 483.6506 453.88233 479.62117 457.91177 474.6506 457.91177 L 324.01606 457.91177 C 319.0455 457.91177 315.01606 453.88233 315.01606 448.91177 L 315.01606 381.91177 C 315.01606 376.9412 319.0455 372.91177 324.01606 372.91177 Z" stroke="black" stroke-linecap="round" stroke-linejoin="round" stroke-width="1"/>
          <text transform="translate(320.01606 396.01187)" fill="black">
            <tspan font-family="Optima" font-size="16" fill="black" x="20.197268" y="15">Whitespace error </tspan>
            <tspan font-family="Optima" font-size="16" fill="black" x="54.42127" y="34.399902">tagging</tspan>
          </text>
        </g>
      </g>
      <g id="Line_100">
        <line x1="278" y1="409.1324" x2="291.43333" y2="409.1324" marker-end="url(#FilledArrow_Marker)" stroke="black" stroke-linecap="round" stroke-linejoin="round" stroke-width="2"/>
      </g>
      <g id="Group_112">
        <g id="Graphic_103">
          <rect x="737" y="339.3824" width="190" height="139.5" fill="#ccc"/>
          <path d="M 737 339.3824 L 927 339.3824 L 927 478.8824 L 737 478.8824 Z" stroke="black" stroke-linecap="round" stroke-linejoin="round" stroke-dasharray="4.0,4.0" stroke-width="1"/>
          <text transform="translate(742 344.3824)" fill="black">
            <tspan font-family="Menlo" font-size="11" fill="black" x="40.92627" y="10">valency-postspell.cg3</tspan>
            <tspan font-family="Menlo" font-size="11" fill="black" x="133.64209" y="127">vislcg3</tspan>
          </text>
        </g>
        <g id="Graphic_102">
          <path d="M 756.6827 372.91177 L 907.3173 372.91177 C 912.2878 372.91177 916.3173 376.9412 916.3173 381.91177 L 916.3173 448.91177 C 916.3173 453.88233 912.2878 457.91177 907.3173 457.91177 L 756.6827 457.91177 C 751.7122 457.91177 747.6827 453.88233 747.6827 448.91177 L 747.6827 381.91177 C 747.6827 376.9412 751.7122 372.91177 756.6827 372.91177 Z" fill="#dead26"/>
          <path d="M 756.6827 372.91177 L 907.3173 372.91177 C 912.2878 372.91177 916.3173 376.9412 916.3173 381.91177 L 916.3173 448.91177 C 916.3173 453.88233 912.2878 457.91177 907.3173 457.91177 L 756.6827 457.91177 C 751.7122 457.91177 747.6827 453.88233 747.6827 448.91177 L 747.6827 381.91177 C 747.6827 376.9412 751.7122 372.91177 756.6827 372.91177 Z" stroke="black" stroke-linecap="round" stroke-linejoin="round" stroke-width="1"/>
          <text transform="translate(752.6827 396.01187)" fill="black">
            <tspan font-family="Optima" font-size="16" fill="black" x="3.9092684" y="15">Valency annotation of </tspan>
            <tspan font-family="Optima" font-size="16" fill="black" x="15.293268" y="34.399902">speller suggestions</tspan>
          </text>
        </g>
      </g>
      <g id="Line_44">
        <path d="M 832 478.8824 L 832 493.33333 L 183 493.33333 L 183 496.5706" marker-end="url(#FilledArrow_Marker)" stroke="black" stroke-linecap="round" stroke-linejoin="round" stroke-width="2"/>
      </g>
      <g id="Line_104">
        <line x1="710.6667" y1="409.1324" x2="724.1" y2="409.1324" marker-end="url(#FilledArrow_Marker)" stroke="black" stroke-linecap="round" stroke-linejoin="round" stroke-width="2"/>
      </g>
      <g id="Group_111">
        <g id="Graphic_64">
          <rect x="520.66667" y="339.3824" width="190" height="139.5" fill="#d1d1d1"/>
          <path d="M 520.66667 339.3824 L 710.6667 339.3824 L 710.6667 478.8824 L 520.66667 478.8824 Z" stroke="black" stroke-linecap="round" stroke-linejoin="round" stroke-dasharray="4.0,4.0" stroke-width="1"/>
          <text transform="translate(525.66667 344.3824)" fill="black">
            <tspan font-family="Menlo" font-size="11" fill="black" x="40.92627" y="10">errmodel.default.hfst</tspan>
            <tspan font-family="Menlo" font-size="11" fill="black" x="40.92627" y="23">acceptor.default.hfst</tspan>
            <tspan font-family="Menlo" font-size="11" fill="black" x="87.28418" y="127">divvun-cgspell</tspan>
          </text>
        </g>
        <g id="Graphic_63">
          <path d="M 540.3494 372.91177 L 690.9839 372.91177 C 695.9545 372.91177 699.9839 376.9412 699.9839 381.91177 L 699.9839 448.91177 C 699.9839 453.88233 695.9545 457.91177 690.9839 457.91177 L 540.3494 457.91177 C 535.37883 457.91177 531.3494 453.88233 531.3494 448.91177 L 531.3494 381.91177 C 531.3494 376.9412 535.37883 372.91177 540.3494 372.91177 Z" fill="#dead26"/>
          <path d="M 540.3494 372.91177 L 690.9839 372.91177 C 695.9545 372.91177 699.9839 376.9412 699.9839 381.91177 L 699.9839 448.91177 C 699.9839 453.88233 695.9545 457.91177 690.9839 457.91177 L 540.3494 457.91177 C 535.37883 457.91177 531.3494 453.88233 531.3494 448.91177 L 531.3494 381.91177 C 531.3494 376.9412 535.37883 372.91177 540.3494 372.91177 Z" stroke="black" stroke-linecap="round" stroke-linejoin="round" stroke-width="1"/>
          <text transform="translate(536.3494 396.01187)" fill="black">
            <tspan font-family="Optima" font-size="16" fill="black" x="31.58927" y="15">Spellchecking </tspan>
            <tspan font-family="Optima" font-size="16" fill="black" x="19.477268" y="34.399902">(unknown words)</tspan>
          </text>
        </g>
      </g>
    </g>
  </g>
</svg>
